<?xml version="1.0" standalone="no"?>
<!DOCTYPE svg PUBLIC "-//W3C//DTD SVG 20010904//EN"
 "http://www.w3.org/TR/2001/REC-SVG-20010904/DTD/svg10.dtd">
<svg version="1.0" xmlns="http://www.w3.org/2000/svg"
 width="260.000000pt" height="260.000000pt" viewBox="0 0 260.000000 260.000000"
 preserveAspectRatio="xMidYMid meet">
<metadata>
Created by potrace 1.14, written by Peter Selinger 2001-2017
</metadata>
<g transform="translate(0.000000,260.000000) scale(0.100000,-0.100000)"
fill="#000000" stroke="none">
<path d="M1172 2573 c-19 -4 -21 -7 -11 -19 6 -8 8 -14 4 -14 -4 0 -3 -6 3
-12 12 -16 34 -129 26 -137 -5 -5 -28 27 -29 40 0 4 -28 34 -62 68 -54 55 -65
61 -83 51 -11 -6 -20 -8 -20 -4 0 3 -6 1 -14 -5 -8 -6 -18 -11 -22 -9 -13 3
-128 -36 -132 -44 -2 -5 -7 -6 -11 -4 -4 3 -13 1 -21 -4 -20 -12 -7 -22 65
-50 33 -13 81 -39 108 -57 26 -18 47 -30 47 -27 0 3 25 -19 55 -49 30 -30 55
-58 55 -62 0 -4 8 -19 19 -33 18 -27 56 -170 47 -179 -2 -3 -11 8 -20 25 -21
42 -143 162 -164 162 -5 0 -12 4 -14 8 -6 14 -218 113 -228 107 -6 -3 -10 -2
-10 2 0 14 -136 46 -164 39 -13 -3 -34 -17 -47 -31 -13 -13 -28 -25 -32 -25
-5 0 -24 -15 -43 -32 -18 -18 -45 -41 -59 -51 -14 -10 -25 -22 -25 -27 0 -11
36 -23 80 -27 42 -3 61 -6 170 -33 47 -11 91 -21 98 -22 6 -1 12 -6 12 -11 0
-5 7 -7 15 -4 8 4 17 2 21 -4 3 -6 11 -8 17 -6 7 2 18 -2 25 -10 7 -7 22 -13
33 -13 10 0 19 -5 19 -11 0 -5 4 -8 8 -5 5 3 25 -6 45 -20 20 -14 37 -21 37
-17 0 4 4 3 8 -2 4 -6 33 -29 64 -53 32 -23 63 -52 69 -64 7 -13 18 -29 26
-36 7 -7 13 -20 13 -28 0 -8 4 -14 9 -14 9 0 23 -52 36 -135 l6 -40 -18 33
c-21 36 -92 113 -138 147 -48 36 -214 124 -245 129 -3 1 -10 4 -16 8 -6 4 -21
9 -35 12 -13 4 -58 15 -99 27 -41 12 -85 22 -97 22 -13 1 -23 5 -23 9 0 5 -13
6 -29 3 -17 -3 -33 -1 -36 5 -3 6 -18 10 -33 10 -15 -1 -58 2 -97 5 l-70 6
-30 -48 c-41 -65 -85 -154 -85 -170 0 -15 -2 -15 120 -15 52 1 102 -2 110 -5
8 -3 33 -8 55 -10 80 -7 100 -10 115 -16 8 -3 51 -13 95 -22 44 -10 85 -20 90
-23 6 -4 17 -7 25 -9 8 -1 30 -8 50 -16 19 -9 50 -21 68 -28 39 -14 155 -87
160 -100 2 -5 9 -9 15 -9 7 -1 28 -21 47 -46 19 -26 41 -52 48 -60 7 -7 12
-15 12 -16 -1 -2 4 -16 10 -33 16 -41 32 -134 26 -148 -2 -7 -5 -4 -5 6 -1 9
-5 17 -11 17 -5 0 -10 7 -10 15 0 7 -6 18 -13 22 -7 4 -21 21 -30 36 -10 15
-26 31 -35 35 -9 3 -24 15 -32 25 -33 40 -215 132 -325 164 -5 1 -35 10 -65
18 -30 9 -62 18 -70 20 -8 2 -15 4 -15 5 0 1 -12 3 -27 4 -14 0 -29 4 -33 8
-4 3 -18 4 -31 2 -13 -2 -24 -1 -24 4 0 5 -15 9 -32 10 -18 1 -64 5 -103 9
-38 4 -110 7 -158 8 l-89 0 -19 -49 c-10 -27 -16 -53 -13 -58 3 -4 2 -14 -3
-20 -8 -14 -15 -50 -17 -88 -1 -23 2 -24 49 -25 28 -1 60 4 73 9 15 6 29 6 40
0 9 -5 56 -9 105 -8 48 0 87 -2 87 -6 0 -4 20 -6 46 -5 25 1 47 -2 50 -6 2 -4
17 -6 34 -5 16 1 30 -1 30 -5 0 -4 21 -10 48 -13 26 -4 72 -14 102 -23 30 -9
58 -16 63 -15 4 1 7 -2 7 -6 0 -5 6 -9 13 -9 24 -2 121 -43 129 -55 4 -7 8 -9
8 -4 0 5 7 3 15 -4 8 -7 15 -9 15 -6 0 4 12 -5 27 -19 15 -14 34 -25 41 -25 7
0 15 -7 18 -15 4 -8 11 -15 18 -15 6 -1 20 -12 31 -26 11 -14 28 -34 37 -46
28 -34 57 -100 68 -157 14 -74 13 -91 -4 -59 -21 41 -66 90 -128 143 -34 28
-164 104 -204 119 -22 8 -52 20 -69 27 -40 16 -56 21 -82 23 -13 0 -23 4 -23
7 0 4 -28 12 -62 19 -35 6 -67 15 -73 18 -5 4 -22 7 -37 8 -16 1 -29 3 -30 4
-2 1 -21 4 -43 5 -22 2 -40 4 -40 5 0 5 -118 12 -252 17 l-133 4 0 -65 c0 -37
4 -66 10 -66 6 0 10 -23 10 -50 0 -44 3 -52 24 -60 14 -5 35 -7 48 -4 42 10
131 14 142 6 6 -3 43 -8 81 -9 39 -2 90 -5 115 -9 25 -3 60 -6 78 -7 17 0 32
-4 32 -9 0 -4 9 -8 21 -8 22 0 133 -26 159 -37 8 -4 20 -8 25 -8 6 -1 18 -5
27 -9 9 -4 22 -9 30 -10 20 -4 72 -30 79 -39 3 -5 8 -7 11 -5 5 3 77 -32 94
-47 7 -5 25 -19 40 -30 50 -35 116 -109 107 -119 -4 -3 -1 -6 5 -6 7 0 11 -3
10 -7 -1 -5 3 -17 8 -28 14 -26 37 -145 30 -153 -3 -3 -6 2 -6 11 0 9 -4 17
-10 17 -5 0 -10 5 -10 10 0 6 -28 38 -62 71 -83 81 -93 89 -106 89 -6 0 -15 7
-20 16 -5 9 -13 16 -18 17 -5 0 -41 16 -81 34 -39 18 -78 33 -85 33 -8 0 -18
4 -23 8 -17 15 -220 68 -239 64 -4 -2 -13 2 -20 7 -6 5 -23 8 -38 6 -16 -2
-28 0 -28 4 0 4 -19 8 -42 9 -24 1 -59 4 -78 6 -83 12 -260 18 -260 10 0 -20
43 -142 65 -189 l25 -50 97 -2 c102 -3 198 -9 198 -13 0 -1 14 -4 30 -6 28 -3
187 -37 230 -49 11 -4 25 -7 30 -9 6 -2 18 -6 27 -10 9 -4 22 -9 30 -10 7 -2
31 -11 53 -21 22 -11 42 -19 45 -20 36 -5 230 -157 230 -180 0 -3 9 -18 20
-33 11 -15 21 -36 23 -47 2 -11 7 -27 10 -35 3 -8 8 -37 11 -65 2 -27 2 -42 0
-32 -3 9 -10 17 -15 17 -5 0 -9 5 -9 10 0 15 -124 140 -139 140 -6 0 -11 5
-11 10 0 6 -5 10 -10 10 -6 0 -28 11 -49 24 -21 14 -42 22 -45 19 -3 -4 -6 -2
-6 4 0 9 -141 70 -149 64 -2 -1 -7 1 -10 6 -6 10 -200 59 -215 55 -4 -2 -13 1
-20 6 -6 5 -23 8 -38 7 -16 -1 -28 1 -28 5 0 3 -17 7 -37 8 -21 1 -69 5 -106
8 l-69 6 18 -28 c10 -16 24 -33 31 -37 7 -4 13 -13 13 -19 0 -6 38 -49 85 -95
67 -65 91 -83 112 -83 16 1 57 -6 93 -15 36 -9 74 -17 85 -19 11 -2 21 -5 23
-6 1 -1 7 -4 12 -5 6 -1 11 -3 13 -4 1 -2 11 -4 23 -6 12 -3 42 -14 68 -25 26
-11 54 -20 62 -20 8 0 14 -5 14 -12 0 -6 3 -9 6 -5 4 3 31 -9 60 -28 30 -19
57 -35 60 -35 3 0 31 -26 62 -58 52 -53 61 -58 103 -60 48 -3 69 14 52 41 -4
7 -8 19 -8 27 0 8 -4 21 -8 27 -5 9 -3 13 8 13 9 0 14 -4 11 -9 -7 -10 79
-100 97 -102 37 -4 142 4 145 11 1 4 18 5 37 3 22 -2 35 1 35 8 0 6 7 9 15 6
18 -7 207 51 217 67 4 6 8 7 8 2 0 -5 6 -4 13 2 6 6 14 10 17 9 21 -3 204 107
230 139 14 16 13 16 -7 5 -13 -6 -23 -9 -23 -5 0 3 -7 1 -15 -6 -9 -7 -18 -10
-22 -7 -3 4 -13 2 -23 -3 -18 -10 -156 -42 -180 -42 -8 0 -22 -2 -30 -5 -8 -3
-33 -6 -55 -7 -22 -1 -44 -4 -50 -7 -9 -6 -120 -5 -120 1 0 1 -16 4 -35 6 -43
4 -62 8 -75 15 -5 4 -22 9 -37 13 -30 7 -118 90 -118 112 0 8 -4 14 -10 14 -5
0 -7 6 -4 14 3 8 1 17 -5 20 -5 4 -8 18 -5 31 2 14 1 25 -4 25 -4 0 -8 9 -9
20 -2 28 2 26 44 -21 31 -34 96 -78 126 -85 4 -1 8 -2 10 -4 2 -2 13 -4 67
-14 59 -12 220 -17 220 -8 0 5 19 8 43 7 23 -1 47 1 52 4 6 3 19 6 30 7 61 7
185 36 185 44 0 4 11 5 25 2 16 -3 25 0 25 8 0 7 6 10 14 7 8 -3 17 -3 20 1 4
3 14 7 24 9 26 5 32 7 104 32 62 21 71 27 116 89 61 84 108 160 117 190 3 12
11 22 16 22 6 0 7 5 4 10 -4 6 -1 17 5 25 12 15 0 22 -14 8 -3 -4 -12 -8 -19
-9 -7 -1 -34 -12 -62 -24 -27 -12 -60 -26 -72 -31 -13 -5 -33 -14 -46 -20 -13
-5 -29 -11 -37 -13 -8 -2 -28 -8 -45 -15 -16 -7 -49 -18 -72 -24 -24 -6 -43
-15 -43 -20 0 -4 -5 -5 -10 -2 -6 4 -17 1 -25 -5 -8 -7 -15 -10 -15 -6 0 3
-12 1 -27 -5 -37 -14 -188 -49 -238 -55 -69 -8 -275 -10 -275 -3 0 4 -11 6
-25 4 -14 -1 -25 1 -25 5 0 4 -13 10 -30 13 -32 7 -130 93 -130 114 0 7 -4 13
-10 13 -5 0 -7 6 -4 14 3 8 1 17 -5 20 -5 4 -8 18 -5 31 2 14 1 25 -4 25 -4 0
-9 13 -10 30 l-2 29 45 -48 c25 -26 64 -56 87 -67 24 -10 45 -21 48 -24 3 -3
14 -6 25 -8 11 -1 34 -5 50 -8 45 -8 219 -12 230 -5 6 3 26 7 45 7 64 4 279
51 297 66 7 5 17 7 23 3 6 -4 16 -2 23 3 7 5 53 22 102 38 50 15 92 29 95 30
21 8 51 16 56 14 4 -1 10 2 13 7 5 7 91 42 116 46 6 1 12 4 15 7 3 3 14 10 24
16 11 5 21 21 23 35 7 51 11 74 13 74 9 0 24 141 17 159 -5 12 -16 9 -59 -12
-29 -15 -56 -31 -60 -37 -4 -5 -8 -7 -8 -2 0 4 -13 1 -29 -7 -16 -9 -31 -12
-35 -9 -3 4 -6 1 -6 -5 0 -6 -25 -19 -55 -28 -30 -10 -55 -22 -55 -26 0 -5 -4
-7 -9 -3 -5 3 -12 1 -16 -5 -4 -6 -10 -8 -15 -5 -5 3 -11 1 -15 -5 -4 -6 -10
-8 -14 -5 -5 2 -25 -5 -47 -15 -21 -11 -46 -20 -56 -20 -9 0 -20 -5 -23 -10
-4 -6 -10 -8 -15 -5 -5 3 -20 0 -32 -6 -13 -7 -32 -14 -43 -16 -11 -1 -58 -12
-105 -23 -118 -29 -139 -31 -275 -31 -128 0 -175 3 -175 11 0 4 -17 12 -37 19
-37 14 -84 44 -84 55 0 3 -10 17 -23 31 -21 23 -41 76 -37 99 1 4 -2 13 -7 20
-5 6 -8 19 -7 28 2 10 -1 20 -6 24 -13 7 -11 34 2 34 5 0 7 -4 4 -10 -8 -13
77 -103 117 -123 81 -39 123 -48 263 -51 55 -2 104 0 110 3 9 5 37 8 110 14
17 1 32 4 35 7 3 3 37 12 75 19 39 8 75 16 80 20 6 3 19 7 30 9 28 5 50 10 53
12 1 2 5 3 10 5 4 1 20 7 35 13 16 7 32 12 37 12 5 0 21 5 37 12 28 11 42 15
66 21 6 1 18 6 25 10 6 5 12 5 12 2 0 -3 10 1 22 9 12 9 28 16 36 16 7 0 29 7
50 17 20 9 41 15 46 14 5 -1 12 3 16 9 3 6 16 12 28 15 56 10 61 20 55 98 -3
39 -9 74 -12 77 -3 3 -6 16 -5 30 0 14 -2 30 -5 35 -3 6 -6 13 -6 18 0 4 -3 7
-7 7 -12 -1 -102 -42 -108 -49 -6 -7 -28 -13 -47 -14 -7 0 -13 -4 -13 -8 0 -4
-17 -13 -37 -20 -21 -6 -47 -16 -58 -22 -11 -6 -26 -12 -32 -14 -27 -6 -39
-11 -73 -25 -19 -9 -50 -19 -67 -23 -18 -3 -33 -10 -33 -14 0 -6 -18 -10 -62
-12 -10 0 -18 -5 -18 -11 0 -5 -6 -8 -14 -5 -7 3 -17 2 -22 -3 -9 -8 -132 -36
-204 -46 -19 -3 -89 -6 -155 -8 -102 -1 -130 2 -185 21 -36 13 -71 30 -77 40
-7 9 -13 14 -13 10 0 -13 -36 27 -53 58 -20 39 -29 64 -32 95 -2 14 -4 30 -5
35 -7 32 3 36 20 8 25 -41 92 -90 144 -105 67 -19 69 -19 111 -23 22 -2 40 -4
40 -6 0 -6 101 -6 110 1 6 4 34 6 63 5 28 -1 52 1 52 5 0 4 12 8 28 8 32 0
204 38 230 50 9 5 24 8 32 7 8 -1 20 3 27 8 7 5 17 6 22 3 5 -4 12 -2 16 3 3
6 33 18 66 27 33 9 62 20 65 25 2 4 11 6 19 2 8 -3 15 0 15 7 0 6 3 9 8 6 4
-2 25 4 47 14 22 11 45 19 52 20 7 0 37 11 67 24 l55 24 -14 46 c-8 26 -18 52
-22 59 -4 7 -8 14 -8 17 -1 3 -11 26 -24 52 -22 46 -23 47 -46 32 -13 -9 -26
-15 -29 -15 -5 0 -57 -20 -101 -39 -36 -15 -47 -19 -160 -56 -44 -14 -87 -28
-95 -31 -8 -4 -18 -7 -22 -8 -5 -2 -9 -3 -10 -5 -2 -1 -10 -3 -18 -5 -8 -2
-46 -10 -85 -19 -38 -9 -86 -19 -105 -23 -19 -3 -46 -7 -60 -10 -30 -5 -217
-5 -245 0 -73 15 -117 33 -155 65 -45 38 -81 106 -85 157 -1 17 -3 30 -4 30
-2 0 -4 11 -7 24 -4 21 0 19 26 -14 34 -43 79 -79 118 -93 15 -6 36 -14 47
-18 11 -4 27 -8 35 -8 8 -1 20 -4 25 -7 13 -8 247 -6 260 2 6 3 24 5 40 4 17
-2 35 1 40 6 6 4 20 8 30 8 25 -1 194 39 209 49 6 4 18 7 26 7 8 0 21 4 28 8
6 5 16 6 21 3 5 -4 11 -3 13 2 2 6 90 38 131 48 4 1 9 3 12 4 3 1 8 3 13 4 16
3 72 29 72 33 0 8 -34 66 -50 84 -8 9 -33 37 -54 61 l-40 45 -60 -23 c-97 -36
-101 -37 -110 -35 -4 1 -14 -3 -22 -10 -7 -6 -18 -8 -24 -4 -5 3 -10 2 -10 -4
0 -6 -7 -8 -15 -5 -8 4 -15 1 -15 -6 0 -8 -9 -11 -25 -8 -14 3 -25 2 -25 -2 0
-8 -115 -32 -147 -31 -12 0 -24 -3 -27 -8 -3 -4 -26 -7 -51 -6 -25 2 -45 0
-45 -4 0 -4 -30 -7 -67 -5 -38 1 -68 3 -68 4 0 2 -11 4 -25 5 -46 4 -141 37
-147 51 -3 8 -9 12 -13 9 -13 -8 -70 64 -77 96 -3 16 -8 29 -12 29 -3 0 -7 12
-8 28 -1 15 -4 39 -7 54 -4 26 -2 25 42 -19 45 -45 135 -94 177 -96 11 0 25
-3 30 -7 9 -6 270 -6 270 0 0 1 14 4 30 6 17 2 41 6 55 9 14 3 52 10 85 16 33
7 62 14 65 18 5 6 37 11 73 12 9 0 17 5 17 11 0 5 6 8 13 5 7 -3 21 1 31 8 17
13 16 15 -12 29 -17 9 -32 19 -34 24 -4 11 -140 100 -168 110 -14 5 -48 3 -89
-5 -36 -8 -82 -14 -101 -15 -19 0 -39 -3 -45 -7 -10 -7 -109 -6 -170 2 -112
14 -212 75 -236 145 -11 33 -24 37 -87 25z"/>
</g>
</svg>
