<svg xmlns="http://www.w3.org/2000/svg" xmlns:xlink="http://www.w3.org/1999/xlink" id="Layer_1" viewBox="88.66 71.08 301.44 242.04">
  <defs>
    <style>
      .cls-1 {
        fill: url(#linear-gradient-2);
      }

      .cls-2 {
        fill: #231f20;
      }

      .cls-3 {
        fill: url(#linear-gradient-4);
      }

      .cls-4 {
        fill: url(#linear-gradient-3);
      }

      .cls-5 {
        fill: url(#New_Gradient_Swatch_3);
      }

      .cls-6 {
        fill: url(#linear-gradient);
      }
    </style>
    <linearGradient id="linear-gradient" x1="-6638.82" y1="806.94" x2="-6882.4" y2="602.56" gradientTransform="translate(2235.14 -94.34) scale(.3)" gradientUnits="userSpaceOnUse">
      <stop offset="0" stop-color="#fef2ee"/>
      <stop offset=".07" stop-color="#fdeae8"/>
      <stop offset=".18" stop-color="#fbd6d9"/>
      <stop offset=".31" stop-color="#f9b6c0"/>
      <stop offset=".46" stop-color="#f5889e"/>
      <stop offset=".62" stop-color="#f14f73"/>
      <stop offset=".76" stop-color="#ed1849"/>
    </linearGradient>
    <linearGradient id="New_Gradient_Swatch_3" data-name="New Gradient Swatch 3" x1="-6757.58" y1="664.64" x2="-6376.54" y2="1056.89" gradientTransform="translate(2235.14 -94.34) scale(.3)" gradientUnits="userSpaceOnUse">
      <stop offset="0" stop-color="#eff6e8"/>
      <stop offset=".24" stop-color="#84c56a"/>
      <stop offset=".35" stop-color="#7dc069"/>
      <stop offset=".5" stop-color="#69b469"/>
      <stop offset=".69" stop-color="#4aa168"/>
      <stop offset=".9" stop-color="#1f8666"/>
      <stop offset="1" stop-color="#087866"/>
    </linearGradient>
    <linearGradient id="linear-gradient-2" x1="-6595.01" y1="438.84" x2="-6595.01" y2="1201.01" gradientTransform="translate(2235.14 -94.34) scale(.3)" gradientUnits="userSpaceOnUse">
      <stop offset="0" stop-color="#fff"/>
      <stop offset="1" stop-color="#8dc858"/>
    </linearGradient>
    <linearGradient id="linear-gradient-3" x1="-6583.57" y1="789.72" x2="-6625.8" y2="550.25" gradientTransform="translate(2235.14 -94.34) scale(.3)" gradientUnits="userSpaceOnUse">
      <stop offset="0" stop-color="#e1e9f6"/>
      <stop offset=".15" stop-color="#dde7f5"/>
      <stop offset=".29" stop-color="#d2e1f2"/>
      <stop offset=".42" stop-color="#c0d8ee"/>
      <stop offset=".54" stop-color="#a6cce8"/>
      <stop offset=".66" stop-color="#85bbe0"/>
      <stop offset=".78" stop-color="#5da7d6"/>
      <stop offset=".9" stop-color="#2e90cb"/>
      <stop offset="1" stop-color="#0079c1"/>
    </linearGradient>
    <linearGradient id="linear-gradient-4" x1="-6578.35" y1="683.74" x2="-6578.35" y2="1068.49" gradientTransform="translate(2235.14 -94.34) scale(.3)" gradientUnits="userSpaceOnUse">
      <stop offset="0" stop-color="#fff"/>
      <stop offset="1" stop-color="#bbdc9b"/>
    </linearGradient>
  </defs>
  <path class="cls-2" d="M93.72,287.88c-.73,0-1.36.62-1.36,1.31s.63,1.33,1.36,1.33c.78,0,1.36-.61,1.36-1.33s-.59-1.31-1.36-1.31M97.29,287.88c-.77,0-1.37.62-1.37,1.31s.6,1.33,1.37,1.33c.72,0,1.36-.61,1.36-1.33s-.64-1.31-1.36-1.31M123.12,276.2c0,1.75-.85,2.61-2.6,2.61h-19.6c-1.68,0-2.36-.54-3.03-2.14l-1.15,2.3c.53,1.19,1.59,1.82,3.23,1.96-.11,1.18-.69,1.99-1.73,2.38-.55.22-1.45.31-2.71.31-2.9.03-4.48-1.7-4.48-4.65,0-1.76.53-3.77,1.58-6l-2.9,1.7c-.68,1.64-1.03,3.22-1.03,4.75,0,1.89.53,3.41,1.58,4.53,1.18,1.25,2.96,1.89,5.26,1.89,1.97,0,3.53-.4,4.67-1.2,1.3-.85,1.89-2.11,1.8-3.72h18.66c1.47,0,2.7-.44,3.58-1.28.91-.85,1.36-1.96,1.36-3.27v-7.02l-2.48.71v6.13ZM122.67,283.2c-.73,0-1.36.59-1.36,1.31s.63,1.33,1.36,1.33,1.36-.63,1.36-1.33-.64-1.31-1.36-1.31M136.85,270.58c-.95-.79-2.2-1.19-3.75-1.19-1.17,0-2.37.51-3.54,1.5v2.77c.85-1.49,2.06-2.22,3.54-2.22,1.81,0,2.73.84,2.73,2.5v4.87h-6.45l-1.52,2.12h10.44v-7.17c0-1.33-.48-2.38-1.45-3.18M150.17,269.23c-1.89,0-3.31.62-4.2,1.83-.75,1.01-1.13,2.35-1.13,3.99s.37,2.98,1.13,3.99c.9,1.26,2.32,1.89,4.2,1.89s3.32-.63,4.24-1.89c.72-1.01,1.09-2.33,1.09-3.99s-.37-2.98-1.09-3.99c-.92-1.21-2.34-1.83-4.24-1.83M150.17,278.87c-1.89,0-2.84-1.28-2.84-3.82s.96-3.77,2.84-3.77,2.91,1.26,2.91,3.77-.98,3.82-2.91,3.82M179.94,283.2c-.76,0-1.34.59-1.34,1.31s.58,1.33,1.34,1.33,1.38-.63,1.38-1.33-.64-1.31-1.38-1.31M183.46,283.2c-.73,0-1.34.59-1.34,1.31s.61,1.33,1.34,1.33,1.4-.63,1.4-1.33-.66-1.31-1.4-1.31M195.02,269.91c-1.81,0-3.15.56-4.03,1.71-.72.99-1.08,2.25-1.08,3.8v.82c0,1.72-.86,2.56-2.59,2.56h-1.81c-1.73,0-2.6-.84-2.6-2.53v-6.92l-2.47.71v6.13c0,1.75-.86,2.61-2.63,2.61h-1.11l-15.16-.04c-.85,0-1.27-.42-1.27-1.25v-13.13l-2.51.77v12.46c0,1.97,1.25,3.31,3.48,3.31h16.72c1.63,0,2.86-.47,3.75-1.35.88.88,2.11,1.35,3.65,1.35h2.13c1.74,0,3.02-.47,3.88-1.35.91.88,2.13,1.35,3.66,1.35,1.78,0,3.11-.6,4-1.75.71-.96,1.07-2.21,1.07-3.74s-.37-2.81-1.07-3.8c-.89-1.15-2.22-1.71-4-1.71M195.02,278.84c-1.74,0-2.62-1.14-2.62-3.41s.88-3.43,2.62-3.43,2.57,1.14,2.57,3.43-.87,3.41-2.57,3.41M207.49,269.79c-1.82,0-3.18.61-4.06,1.82-.7,1.01-1.07,2.3-1.07,3.92s.37,2.9,1.07,3.89c.88,1.25,2.24,1.85,4.06,1.85.92,0,1.73-.21,2.5-.61-.22,1.91-1.26,2.95-3.15,3.05-1.29.08-2.69-.21-4.19-.89l1.11,2.35c.74.43,1.77.67,3.08.67,1.86,0,3.3-.59,4.25-1.75.93-1.03,1.37-2.42,1.41-4.17,0-.27,0-.8.07-1.62.04-.74.04-1.37.04-1.87,0-1.96-.3-3.49-.87-4.54-.82-1.41-2.25-2.1-4.25-2.1M207.49,279.14c-1.76,0-2.66-1.2-2.66-3.62s.9-3.64,2.66-3.64,2.64,1.2,2.64,3.64-.89,3.62-2.64,3.62M224.92,277.65c0-1.46.89-2.5,2.17-2.5.8,0,1.46.36,2.01,1.05l1.68-1.62c-1.03-1.06-2.19-1.62-3.43-1.62-1.48,0-2.68.51-3.54,1.54-.82.93-1.24,2.11-1.24,3.53v.71h-1.81l-1.9,2.18h12.32v-2.18h-6.27v-1.09ZM256.74,276.2c0,1.75-.85,2.61-2.6,2.61h-1.26l-15.14-.04c-.88,0-1.28-.42-1.28-1.25v-13.13l-2.51.77v12.46c0,1.97,1.24,3.31,3.46,3.31h16.88c1.5,0,2.7-.44,3.6-1.28.88-.85,1.35-1.96,1.35-3.27v-7.02l-2.49.71v6.13ZM256.27,283.2c-.7,0-1.34.59-1.34,1.31s.63,1.33,1.34,1.33c.75,0,1.36-.63,1.36-1.33s-.62-1.31-1.36-1.31M320.38,271.8c-1.24-1.08-2.76-1.62-4.58-1.62-.39,0-.76.02-1.16.08l5.68-5.82h-3.26l-8.19,8.3,1.72,1.56c1.19-1.33,2.71-1.99,4.6-1.99,1.44,0,2.62.41,3.53,1.23.67.61,1.1,1.44,1.27,2.49.07.54.14,1.47.1,2.78h-11.72l-11.19-.04v-1.12c0-2.07-.1-3.52-.28-4.4-.23-1.19-.76-2.11-1.56-2.8-1.21-1.07-2.78-1.61-4.74-1.61s-3.55.75-4.78,2.21c-1.2,1.44-1.81,3.23-1.79,5.34.02,1,.2,1.78.49,2.37h-15.06v-9.41l-2.51.71v10.16c0,2.15-1.28,3.48-3.41,3.48-1.5,0-2.84-.35-4.01-.97l1.17,2.4c.78.46,1.7.7,2.84.7,3.38,0,5.54-1.96,5.88-4.91h53.22c0-2.92-.05-4.55-.09-4.9-.2-1.78-.94-3.19-2.18-4.22M288.21,278.77c-1.29,0-1.94-1.09-1.94-2.49,0-.75.17-1.41.51-1.99.38-.59.84-.91,1.43-.91s1.05.31,1.41.91c.37.58.55,1.24.55,1.99,0,1.4-.68,2.49-1.96,2.49M294.73,278.77h-3.12c.55-.38.82-1.21.82-2.47s-.33-2.36-.98-3.25c-.75-1.1-1.81-1.64-3.14-1.64.58-.29,1.34-.42,2.29-.42,1.95-.03,3.18.7,3.72,2.21.28.73.41,2.22.41,4.45v1.12ZM333.35,267.07c.77,0,1.38-.62,1.38-1.34s-.61-1.3-1.38-1.3-1.36.59-1.36,1.3.62,1.34,1.36,1.34M336.9,267.07c.74,0,1.37-.62,1.37-1.34s-.63-1.3-1.37-1.3-1.34.59-1.34,1.3.6,1.34,1.34,1.34M355.15,266.12h-3.92v-.74c0-1.14.5-1.73,1.46-1.73.58,0,1,.24,1.4.73l1.15-1.12c-.72-.73-1.47-1.1-2.32-1.1-2.08,0-3.32,1.51-3.32,3.45v.5h-.9l-1.26,1.48h7.7v-1.48ZM365.62,283.2c-.77,0-1.36.59-1.36,1.31s.59,1.33,1.36,1.33,1.37-.63,1.37-1.33-.62-1.31-1.37-1.31M369.14,283.2c-.75,0-1.32.59-1.32,1.31s.57,1.33,1.32,1.33,1.37-.63,1.37-1.33-.64-1.31-1.37-1.31M389.05,271.11c-1.01-1.77-2.89-2.66-5.59-2.66h-3.18l-2.85,2.15h5.7c1.87,0,3.11.58,3.7,1.72.45.83.68,2.29.68,4.37v2.08h-2.34c.45-.57.68-1.5.68-2.75,0-1.06-.22-1.97-.72-2.64-.6-.9-1.52-1.34-2.78-1.34s-2.19.43-2.83,1.34c-.49.68-.72,1.59-.72,2.64,0,1.61.26,2.51.81,2.75l-7.63.04h-.79c-1.75,0-2.6-.84-2.6-2.53v-6.92l-2.47.71v6.13c0,1.75-.86,2.61-2.62,2.61h-6.77c-1.74,0-2.59-.84-2.59-2.53v-6.92l-2.48.71v6.13c0,1.75-.86,2.61-2.63,2.61h-6.91c-1.71,0-2.57-.86-2.57-2.61v-6.84h-5.35c-3.34,0-5.02,1.89-5.02,5.69s1.69,5.87,5.02,5.87c1.97,0,3.27-.6,3.86-1.81.57,1.21,1.88,1.81,3.93,1.81h7.2c1.61,0,2.84-.47,3.74-1.35.89.88,2.1,1.35,3.66,1.35h7.07c1.62,0,2.84-.47,3.76-1.35.88.88,2.09,1.35,3.65,1.35h19.03v-4.24c0-2.48-.34-4.37-1.02-5.58M337.02,275.05c0,1.25-.17,2.18-.52,2.74-.41.69-1.13,1.02-2.16,1.02s-1.76-.33-2.17-1.02c-.34-.56-.52-1.49-.52-2.74s.19-2.2.52-2.73c.4-.65,1.15-.99,2.17-.99h2.68v3.72ZM382.35,278.81c-1.03,0-1.56-.92-1.56-2.78,0-1.5.54-2.25,1.56-2.25s1.55.75,1.55,2.25c0,1.86-.52,2.78-1.55,2.78"/>
  <g>
    <path class="cls-2" d="M363.14,300.45h-.02c-.81.62-1.22,1.4-1.22,2.31v6.18h2.21v-6.16c0-.89,1.12-1.53,2.75-1.53h.47v-1.75h-.47c-1.56,0-2.82.33-3.73.95"/>
    <path class="cls-2" d="M370.15,298.11c.72,0,1.15-.46,1.15-1.19s-.45-1.17-1.15-1.17c-.73,0-1.19.44-1.19,1.17s.45,1.19,1.19,1.19M369.03,308.93h2.18v-9.43h-2.18v9.43Z"/>
    <path class="cls-2" d="M387.86,299.49v5.22c0,.9-1.13,1.53-2.75,1.53-1.46,0-3.01-.4-3.01-1.52v-.27s0-4.96,0-4.96h-2.22v5.27c-.01,1.54,1.37,3.21,5.22,3.21,1.09,0,1.98-.21,2.75-.53v2.4c0,.91-1.13,1.53-2.75,1.53h-2.47v1.75h2.47c1.57,0,2.81-.31,3.74-.94.82-.63,1.23-1.4,1.23-2.32v-10.37h-2.22Z"/>
    <path class="cls-2" d="M375.37,306.02v-4.79h2.85v-1.73h-2.85v-2.68h-2.2v8.91c0,1.3.41,2.18,1.24,2.63.71.38,1.86.57,3.48.57h.83v-1.73h-.48c-2.72,0-2.88-.45-2.88-1.17"/>
    <path class="cls-2" d="M358.99,300.45h-.02c-.91-.63-2.18-.95-3.74-.95-1.76,0-3.02.33-3.94.94-.83.63-1.25,1.41-1.25,2.32v2.98c0,1.3.42,2.18,1.25,2.63.72.38,1.86.57,3.49.57h.7c1.61,0,2.78-.19,3.51-.59.82-.43,1.22-1.31,1.22-2.61v-2.98c0-.91-.41-1.69-1.22-2.3M357.99,306.02c0,.72-.14,1.17-2.87,1.17s-2.87-.45-2.87-1.17v-3.25c0-.89,1.13-1.54,2.76-1.54,1.84,0,2.97.65,2.97,1.54v3.25Z"/>
    <path class="cls-2" d="M316.6,297.52h0c-.92-.65-2.18-.96-3.75-.96-3.83,0-5.23,1.67-5.23,3.23v9.14h2.25v-3.21h5.76v3.21h2.2v-9.11c0-.92-.41-1.69-1.22-2.31M315.63,303.98h-5.76v-4.19c0-1.4,2.29-1.49,2.98-1.49,1.64,0,2.78.64,2.78,1.55v4.14Z"/>
    <path class="cls-2" d="M343.11,300.45c-1.09,0-1.97.2-2.76.53v-4.3h-2.21v12.25h2.21v-5.2c0-.9,1.14-1.53,2.76-1.53,1.46,0,3.02.4,3.02,1.5v5.22h2.22v-4.92s0-.34,0-.34c0-1.55-1.38-3.22-5.25-3.22"/>
    <path class="cls-2" d="M327.5,305.7c0,1.39-2.3,1.5-3.01,1.5-1.62,0-2.78-.63-2.78-1.54v-6.16h-2.18v6.19c0,.9.41,1.66,1.22,2.28h0c.91.65,2.17.96,3.73.96,3.87,0,5.25-1.66,5.25-3.23v-6.2h-2.24v6.2Z"/>
    <path class="cls-2" d="M333.63,306.02v-4.79h2.83v-1.73h-2.83v-2.68h-2.22v8.91c0,1.3.43,2.18,1.25,2.63.71.38,1.85.57,3.49.57h.81v-1.73h-.48c-2.72,0-2.86-.45-2.86-1.17"/>
    <path class="cls-2" d="M108.36,305.7c0,1.39-2.31,1.5-3.03,1.5-1.62,0-2.75-.63-2.75-1.54v-6.16h-2.21v6.18c0,.9.43,1.68,1.23,2.3.92.65,2.17.96,3.73.96,3.87,0,5.25-1.66,5.25-3.23v-6.2h-2.23v6.2Z"/>
    <path class="cls-2" d="M120.58,300.43h0c-.81-.64-1.83-.94-3.15-.94h-3.06v-3.26h-2.17v8.89c.11,2.55,1.87,3.81,5.23,3.81s4.85-1.38,4.85-4.64c0-1.77-.49-2.88-1.7-3.86M117.24,307.1c-2.5,0-2.87-1.75-2.87-2.81v-3.08h2.87c2.48,0,2.87,1.93,2.87,3.08,0,2.15-.67,2.81-2.87,2.81"/>
    <path class="cls-2" d="M97.54,297.2h-.02c-.9-.64-2.15-.97-3.72-.97h-5.14v12.69h5.37c1.63,0,2.79-.19,3.51-.59.81-.43,1.23-1.31,1.23-2.61v-6.23c0-.9-.42-1.68-1.23-2.29M96.55,306.02c0,.72-.14,1.17-2.87,1.17h-2.86v-9.21h2.97c1.62,0,2.76.62,2.76,1.52v6.51Z"/>
    <path class="cls-2" d="M136.64,297.79c.71,0,1.16-.44,1.16-1.19,0-.71-.45-1.17-1.16-1.17s-1.2.46-1.2,1.17.47,1.19,1.2,1.19M135.53,308.62h2.18v-9.44h-2.18v9.44Z"/>
    <path class="cls-2" d="M128.86,308.93c1.58,0,2.81-.31,3.74-.94.83-.64,1.24-1.41,1.24-2.3v-2.98c0-1.29-.42-2.18-1.24-2.62-.72-.39-1.88-.59-3.5-.59h-3.75v1.75h3.42c2.72,0,2.88.43,2.88,1.19v.06h-3.75c-1.67,0-2.75.25-3.41.81-.57.48-.85,1.3-.85,2.42,0,1.55,1.36,3.21,5.23,3.21M127.56,304.17h4.08v1.49c0,.91-1.16,1.54-2.78,1.54-1.45,0-3.01-.41-3.01-1.51,0-.62.22-1.52,1.71-1.52"/>
    <path class="cls-2" d="M145.24,297.2c-.83.62-1.25,1.39-1.25,2.29v6.23c0,1.3.42,2.18,1.25,2.63.73.38,1.86.57,3.49.57h3.76v-1.73h-3.42c-2.72,0-2.87-.45-2.87-1.17v-2.56h3.72v-1.75h-3.72v-2.2c0-.9,1.13-1.52,2.76-1.52h3.52v-1.75h-3.52c-1.56,0-2.8.32-3.72.97"/>
    <path class="cls-2" d="M170.99,300.45h0c-.82.62-1.25,1.4-1.25,2.31v2.98c0,1.3.43,2.18,1.25,2.63.72.38,1.88.57,3.5.57h3.77v-1.73h-3.43c-2.74,0-2.87-.45-2.87-1.17v-3.25c0-.89,1.13-1.54,2.76-1.54h3.53v-1.73h-3.53c-1.55,0-2.81.33-3.73.95"/>
    <path class="cls-2" d="M188.42,300.45c-.83.62-1.24,1.4-1.24,2.3v6.18h2.2v-6.16c0-.89,1.14-1.53,2.78-1.53h.47v-1.75h-.47c-1.57,0-2.82.33-3.73.95"/>
    <rect class="cls-2" x="154.17" y="296.23" width="2.18" height="12.69"/>
    <path class="cls-2" d="M194.31,308.93h2.18v-9.43h-2.18v9.43ZM195.43,298.11c.71,0,1.13-.45,1.13-1.19s-.43-1.17-1.13-1.17c-.75,0-1.19.44-1.19,1.17s.45,1.19,1.19,1.19"/>
    <path class="cls-2" d="M214.71,306.02v-4.79h2.84v-1.73h-2.84v-2.68h-2.21v8.91c0,1.3.42,2.18,1.24,2.63.73.38,1.87.57,3.49.57h.83v-1.73h-.48c-2.74,0-2.87-.45-2.87-1.17"/>
    <path class="cls-2" d="M182.14,306.02v-4.79h2.84v-1.73h-2.84v-2.68h-2.21v8.91c0,1.3.41,2.18,1.25,2.63.72.38,1.87.57,3.48.57h.83v-1.73h-.47c-2.75,0-2.88-.45-2.88-1.17"/>
    <path class="cls-2" d="M227.24,304.71c0,.9-1.15,1.53-2.78,1.53-1.45,0-3-.4-3-1.52v-5.23h-2.23v5.27c0,1.54,1.38,3.21,5.23,3.21,1.1,0,1.99-.21,2.78-.53v2.4c0,.91-1.15,1.53-2.78,1.53h-2.46v1.75h2.46c1.58,0,2.82-.31,3.72-.94.84-.62,1.26-1.4,1.26-2.32v-10.37h-2.2v5.22Z"/>
    <path class="cls-2" d="M199.44,300.45h-.02c-.81.62-1.25,1.4-1.25,2.31v2.98c0,1.3.44,2.18,1.25,2.63.71.38,1.88.57,3.5.57h3.76v-1.73h-3.41c-2.75,0-2.89-.45-2.89-1.17v-3.25c0-.89,1.14-1.54,2.78-1.54h3.53v-1.73h-3.53c-1.55,0-2.83.33-3.71.95"/>
    <path class="cls-2" d="M209.46,298.11c.72,0,1.15-.46,1.15-1.19s-.45-1.17-1.15-1.17-1.17.44-1.17,1.17.44,1.19,1.17,1.19M208.38,308.93h2.16v-9.43h-2.16v9.43Z"/>
    <path class="cls-2" d="M163.02,299.49c-1.57,0-2.83.33-3.73.95-.84.62-1.26,1.4-1.26,2.31v2.98c0,1.3.43,2.18,1.26,2.63.71.38,1.85.57,3.49.57h3.79v-1.73h-3.44c-2.73,0-2.86-.45-2.86-1.17v-.09h3.73c1.66,0,2.75-.23,3.4-.78.56-.5.87-1.31.87-2.43,0-1.56-1.37-3.23-5.23-3.23M164.32,304.28h-4.06v-1.51c0-.89,1.12-1.54,2.76-1.54,1.44,0,3,.41,3,1.52,0,.63-.21,1.53-1.7,1.53"/>
    <path class="cls-2" d="M297.22,300.45h-.02c-.81.62-1.23,1.4-1.23,2.3v6.18h2.19v-6.16c0-.89,1.17-1.53,2.8-1.53h.47v-1.75h-.47c-1.58,0-2.83.33-3.74.95"/>
    <path class="cls-2" d="M279.57,306.02v-4.79h2.84v-1.73h-2.84v-2.68h-2.21v8.91c0,1.3.42,2.18,1.24,2.63.72.38,1.87.57,3.5.57h.81v-1.73h-.47c-2.74,0-2.88-.45-2.88-1.17"/>
    <path class="cls-2" d="M261.92,305.7c0,1.39-2.09,1.5-2.74,1.5-1.41,0-2.41-.56-2.53-1.39v-8.98s-2.12,0-2.12,0v8.88c0,1.39-2.12,1.5-2.75,1.5-1.49,0-2.54-.63-2.54-1.54v-8.84h-2.13v8.87c0,.89.39,1.66,1.15,2.27.86.66,2.05.98,3.52.98,1.65,0,2.88-.41,3.74-1.12.08.06.15.15.15.15.86.66,2.04.98,3.51.98,3.6,0,4.88-1.66,4.88-3.23v-8.88h-2.13v8.88Z"/>
    <path class="cls-2" d="M270.71,308.93c1.56,0,2.82-.31,3.73-.94.82-.64,1.25-1.41,1.25-2.3v-2.98c0-1.29-.43-2.18-1.25-2.62-.71-.39-1.86-.59-3.49-.59h-3.77v1.75h3.41c2.75,0,2.88.43,2.88,1.19v.06h-3.74c-1.66,0-2.74.25-3.41.81-.55.48-.84,1.3-.84,2.42,0,1.55,1.36,3.21,5.23,3.21M269.4,304.17h4.07v1.49c0,.91-1.14,1.54-2.76,1.54-1.45,0-3.02-.41-3.02-1.51,0-.62.22-1.52,1.71-1.52"/>
    <path class="cls-2" d="M289.08,299.49c-1.58,0-2.82.33-3.75.95-.82.62-1.23,1.4-1.23,2.31v2.98c0,1.3.42,2.18,1.23,2.63.73.38,1.86.57,3.49.57h3.77v-1.73h-3.44c-2.72,0-2.86-.45-2.86-1.17v-.09h3.76c1.64,0,2.73-.23,3.37-.78.6-.5.89-1.31.89-2.43,0-1.56-1.39-3.23-5.23-3.23M290.37,304.28h-4.07v-1.51c0-.89,1.14-1.54,2.78-1.54,1.44,0,2.99.41,2.99,1.52,0,.63-.22,1.53-1.71,1.53"/>
    <path class="cls-2" d="M240.68,304c.08-.36.12-.66.12-.92h2.11c0,.65-.09,1.29-.35,1.9-.24.62-.54,1.19-.89,1.71l1.61,2.24h-2.62l-.7-.93c-.29.38-.71.64-1.23.84-.53.2-1.09.28-1.71.28-.77,0-1.38-.1-1.88-.34-.48-.21-.87-.51-1.14-.84-.28-.36-.47-.75-.57-1.16-.1-.41-.16-.78-.16-1.14,0-.7.23-1.36.66-1.93.44-.58,1.04-1.1,1.8-1.58l-.43-.63c-.17-.24-.3-.47-.43-.67-.09-.18-.2-.38-.24-.54-.04-.17-.09-.34-.11-.5-.03-.15-.04-.33-.04-.48,0-.4.07-.76.24-1.08.14-.31.36-.58.64-.8.28-.22.61-.4.99-.51.4-.13.8-.18,1.26-.18.53,0,.98.06,1.37.2.37.14.69.3.93.55.24.23.43.5.56.81.12.3.18.63.18.99,0,.61-.17,1.16-.53,1.66-.34.48-.88.98-1.61,1.5l1.83,2.47c.13-.27.24-.57.31-.92M235.92,304.61c-.2.31-.28.67-.28,1.03,0,.2.03.39.1.58.08.19.19.35.34.52.12.14.32.27.54.38.2.09.46.14.74.14.64,0,1.18-.26,1.59-.77l-2.07-2.91c-.46.37-.8.7-.95,1.03M237.13,300.57l.27.41.44-.38c.29-.23.48-.47.61-.68.12-.22.18-.44.18-.65,0-.32-.11-.59-.31-.76-.19-.18-.45-.26-.76-.26s-.57.08-.75.26c-.22.16-.3.41-.3.73,0,.34.21.79.62,1.34"/>
  </g>
  <g>
    <path class="cls-6" d="M152.52,152.17c0-1.87.1-3.7.25-5.52,1.33-18.37,9.35-34.88,21.65-47.13,13.54-13.49,32.19-21.82,52.84-21.82,11.26,0,21.99,2.52,31.58,6.97,3.23.51,6.33,1.21,9.43,2.05-11.9-7.42-25.94-11.73-41.01-11.73-42.77,0-77.43,34.54-77.43,77.16,0,2.75.15,5.46.43,8.15,2.02,19.18,11.11,36.27,24.6,48.63-1.67-2.72-3.15-5.58-4.46-8.5-11.14-13-17.88-29.84-17.88-48.27Z"/>
    <path class="cls-5" d="M245.99,83.7c-45.83,0-82.98,37.02-82.98,82.67s37.15,82.7,82.98,82.7,82.95-37.02,82.95-82.7-37.13-82.67-82.95-82.67ZM237.55,218.49c-35.4,0-64.14-28.64-64.14-63.92s28.74-63.89,64.14-63.89,64.13,28.63,64.13,63.89-28.72,63.92-64.13,63.92Z"/>
    <path class="cls-1" d="M304.63,152.17c0-8.9-1.52-17.43-4.3-25.39-5.82-16.71-17.25-30.78-32.06-40.05-3.11-.84-6.2-1.54-9.43-2.05,7.94,3.7,15.1,8.74,21.22,14.85,4.81,4.77,8.95,10.2,12.28,16.15,6.09,10.77,9.59,23.22,9.59,36.5,0,20.58-8.34,39.17-21.87,52.64-13.52,13.49-32.21,21.82-52.8,21.82s-39.3-8.33-52.84-21.82c-1.41-1.39-2.72-2.84-4.02-4.36,1.31,2.92,2.78,5.78,4.46,8.5,13.77,12.64,32.16,20.36,52.4,20.36,42.76,0,77.37-34.55,77.37-77.14Z"/>
    <path class="cls-4" d="M188.19,96.21c13.86-13.83,33.01-22.37,54.18-22.37s40.29,8.54,54.13,22.37c4.93,4.9,9.16,10.48,12.6,16.56,3.03,3.56,5.8,7.35,8.23,11.39-10.85-30.92-40.31-53.08-74.96-53.08-43.85,0-79.43,35.43-79.43,79.12,0,2.83.17,5.62.45,8.36.5-4.79,1.32-9.48,2.58-14.02,1.39-18.81,9.6-35.76,22.22-48.32Z"/>
    <path class="cls-3" d="M242.37,229.3c43.83,0,79.37-35.41,79.37-79.11,0-9.12-1.56-17.88-4.4-26.03-2.43-4.04-5.2-7.83-8.23-11.39,6.27,11.06,9.85,23.81,9.85,37.43,0,21.09-8.58,40.16-22.45,53.99-13.84,13.83-32.98,22.37-54.13,22.37s-40.32-8.54-54.18-22.37c-13.89-13.82-22.46-32.9-22.46-53.99,0-1.9.1-3.76.24-5.67-1.26,4.55-2.08,9.23-2.58,14.02,4.23,39.77,37.95,70.76,78.98,70.76Z"/>
  </g>
</svg>