<?xml version="1.0" encoding="utf-8"?>
<!-- Generator: Adobe Illustrator 22.1.0, SVG Export Plug-In . SVG Version: 6.00 Build 0)  -->
<svg version="1.1" xmlns="http://www.w3.org/2000/svg" xmlns:xlink="http://www.w3.org/1999/xlink" x="0px" y="0px" width="24px"
	 height="24px" viewBox="0 0 24 24" style="enable-background:new 0 0 24 24;" xml:space="preserve">
<style type="text/css">
	.st0{fill:#D2DD29;}
	.st1{fill:#FFFFFF;}
</style>
<g id="Layer_1_copy">
	<path class="st0" d="M12,0C5.4,0,0,5.4,0,12s5.4,12,12,12s12-5.4,12-12S18.6,0,12,0z M9.1,17.6H6.4V9.5h2.7V17.6z M7.8,8.3
		c-0.8,0-1.5-0.7-1.5-1.5c0-0.8,0.7-1.5,1.5-1.5s1.5,0.7,1.5,1.5C9.3,7.6,8.6,8.3,7.8,8.3z M18.6,17.6h-2.7v-3.9
		c0-2.6-2.7-2.3-2.7,0v3.9h-2.7V9.5h2.7V11c1.2-2.2,5.4-2.4,5.4,2.1V17.6z"/>
</g>
<g id="Layer_1">
	<path class="st1" d="M12,0C5.4,0,0,5.4,0,12s5.4,12,12,12s12-5.4,12-12S18.6,0,12,0z M9.1,17.6H6.4V9.5h2.7V17.6z M7.8,8.3
		c-0.8,0-1.5-0.7-1.5-1.5c0-0.8,0.7-1.5,1.5-1.5s1.5,0.7,1.5,1.5C9.3,7.6,8.6,8.3,7.8,8.3z M18.6,17.6h-2.7v-3.9
		c0-2.6-2.7-2.3-2.7,0v3.9h-2.7V9.5h2.7V11c1.2-2.2,5.4-2.4,5.4,2.1V17.6z"/>
</g>
</svg>
